# xmcd
#
# Track frame offsets:
# 150
# 15794
# 26427
# 37966
# 50407
# 64993
# 78568
# 95578
# 107927
# 120034
# 133453
# 147173
# 161885
# 176408
#
# Disc length: 2536 seconds
#
# Revision: 1
# Processed by: cddbd v1.5.1PL0 Copyright (c) Steve Scherf et al.
# Submitted via: inCDius 2.0b9
#
DISCID=b509e60e
DTITLE=James Hunter - Believe What I Say
DYEAR=1900
DGENRE=
TTITLE0=Two Can Play
TTITLE1=Way Down Inside
TTITLE2=The Very Thought of You
TTITLE3=It Ain't Funny
TTITLE4=Turn on Your Love Light
TTITLE5=Let Me Know
TTITLE6=I'll Walk Away
TTITLE7=I Wanna Get Old With You
TTITLE8=Hallelujah, I Lover Her So
TTITLE9=Believe What I Say
TTITLE10=Out of Sight
TTITLE11=Don't Step on It
TTITLE12=Hear Me Calling
TTITLE13=Ain't Nothing You Can Do
EXTD={395}
EXTT0=
EXTT1=
EXTT2=
EXTT3=
EXTT4=
EXTT5=
EXTT6=
EXTT7=
EXTT8=
EXTT9=
EXTT10=
EXTT11=
EXTT12=
EXTT13=
PLAYORDER=
